<svg id="visual" viewBox="0 0 900 600" width="900" height="600" xmlns="http://www.w3.org/2000/svg" xmlns:xlink="http://www.w3.org/1999/xlink" version="1.1"><rect x="0" y="0" width="900" height="600" fill="#fff"></rect><g fill="#e0d6cd"><circle r="58" cx="510" cy="399"></circle><circle r="22" cx="237" cy="229"></circle><circle r="55" cx="435" cy="171"></circle><circle r="37" cx="635" cy="262"></circle><circle r="24" cx="716" cy="441"></circle><circle r="47" cx="836" cy="429"></circle><circle r="30" cx="364" cy="66"></circle><circle r="38" cx="204" cy="512"></circle><circle r="36" cx="394" cy="460"></circle><circle r="44" cx="792" cy="320"></circle><circle r="36" cx="105" cy="339"></circle><circle r="46" cx="753" cy="71"></circle><circle r="27" cx="619" cy="123"></circle><circle r="44" cx="225" cy="90"></circle><circle r="25" cx="371" cy="298"></circle><circle r="47" cx="616" cy="530"></circle><circle r="35" cx="487" cy="283"></circle><circle r="50" cx="82" cy="214"></circle><circle r="43" cx="72" cy="498"></circle><circle r="47" cx="248" cy="368"></circle><circle r="53" cx="493" cy="73"></circle><circle r="25" cx="832" cy="191"></circle><circle r="36" cx="487" cy="540"></circle><circle r="23" cx="59" cy="63"></circle><circle r="40" cx="780" cy="539"></circle></g></svg>